<?xml version="1.0" encoding="utf-8"?>
<!-- Generator: Adobe Illustrator 23.0.6, SVG Export Plug-In . SVG Version: 6.00 Build 0)  -->
<svg version="1.1" id="Layer_1" xmlns="http://www.w3.org/2000/svg" xmlns:xlink="http://www.w3.org/1999/xlink" x="0px" y="0px"
	 viewBox="0 0 120 47" style="enable-background:new 0 0 120 47;" xml:space="preserve">
<style type="text/css">
	.st0{fill:#9F1C43;}
	.st1{fill-rule:evenodd;clip-rule:evenodd;fill:#9F1C43;}
	.st2{fill-rule:evenodd;clip-rule:evenodd;fill:#D7222A;}
	.st3{fill:#D7222A;}
</style>
<path class="st0" d="M7,8.4l-0.1,0c-1,0-2,0.4-2.7,1.1V0.2H0v33.3v0.1v3.5h3.8h0h3.2c2.1,0,3.8-1.8,3.8-3.9V12.3
	C10.8,10.2,9.1,8.5,7,8.4 M6.7,31.6c0,0.6-0.6,1.1-1.2,1.1h0c-0.7,0-1.2-0.5-1.2-1.1V13.4c0-0.6,0.6-1.1,1.2-1.1h0
	c0.7,0,1.2,0.5,1.2,1.1V31.6z"/>
<path class="st1" d="M29.5,5.4L29.5,5.4c-1.1,0-2-0.9-2-2c0-1.1,0.9-2,2-2c1.1,0,2,0.9,2,2C31.4,4.5,30.5,5.4,29.5,5.4"/>
<path class="st2" d="M49.8,5.4L49.8,5.4c-1.4,0-2.6-1.2-2.6-2.6s1.2-2.6,2.6-2.6c1.4,0,2.6,1.2,2.6,2.6S51.2,5.4,49.8,5.4"/>
<path class="st0" d="M27.5,7.8v30.8v1.5c0,0.8-0.7,1.5-1.5,1.5s-1.5-0.7-1.5-1.5v-0.8h-3.9v1.3c0,2.7,2.2,4.9,4.9,4.9h0.8
	c2.9,0,5.2-2.3,5.2-5.2V7.8H27.5z"/>
<path class="st0" d="M47.8,7.8v30.8v1.5c0,0.8-0.7,1.5-1.5,1.5c-0.8,0-1.5-0.7-1.5-1.5v-0.8h-3.9v1.3c0,2.7,2.2,4.9,4.9,4.9h0.8
	c2.9,0,5.2-2.3,5.2-5.2V7.8H47.8z"/>
<path class="st0" d="M39.6,7.8c-0.1,0-0.1,0-0.1,0l0,0l-0.1,0c-0.3,0-0.6,0-0.8,0l0,0c-0.2,0-0.3,0.1-0.5,0.1
	c-1.8,0.3-3.2,1.4-3.8,3.1l0,0c-0.1,0.2-0.1,0.4-0.2,0.6l0,0.1c-0.1,0.4-0.1,0.7-0.1,1.1l0.1,4.9h2.9c-0.1-0.1-0.3-0.1-0.4-0.2
	c0.1,0.1,0.2,0.2,0.4,0.2h1.5v-4.9c0-0.7,0.6-1.2,1.4-1.2h0c0.7,0,1.4,0.5,1.4,1.2v4.8l0,0v2.5h-2.5c-0.3,0-0.6,0-0.9,0
	c-2.1,0-3.8,1.8-3.8,3.9v0.2c0,0.3,0,0.6,0,1v7.3h0v0.6c0,2.1,1.6,3.9,3.8,3.9c1.3,0,3.2,0,3.2,0h4v-3.5v-0.1v-1c0-2.6,0-5.2,0-7.9
	l0,0v-1v-0.1v-2.5v0v-8.4C45,12.8,45.2,7.8,39.6,7.8 M40.8,25.5V29v3.6c0,0.6-0.6,1.1-1.2,1.1h0c-0.7,0-1.2-0.5-1.2-1.1V29v-2.7
	v-1.1c0-0.7,0.6-1.2,1.2-1.2c0.7,0,1.2,0.6,1.2,1.2V25.5z"/>
<path class="st0" d="M19.2,7.8c-0.1,0-0.1,0-0.1,0l0,0l-0.1,0c-0.3,0-0.6,0-0.8,0l0,0c-0.2,0-0.3,0.1-0.5,0.1
	c-1.8,0.3-3.2,1.4-3.8,3.1l0,0c-0.1,0.2-0.1,0.4-0.2,0.6l0,0.1c-0.1,0.4-0.1,0.7-0.1,1.1l0.1,4.9h2.9c-0.1-0.1-0.3-0.1-0.4-0.2
	c0.1,0.1,0.2,0.2,0.4,0.2H18v-4.9c0-0.7,0.6-1.2,1.4-1.2c0.7,0,1.4,0.5,1.4,1.2v4.8l0,0v2.5h-2.5c-0.3,0-0.6,0-0.9,0
	c-2.1,0-3.8,1.8-3.8,3.9v0.2c0,0.3,0,0.6,0,1v7.3h0v0.6c0,2.1,1.6,3.9,3.8,3.9c1.3,0,3.2,0,3.2,0h4v-3.5v-0.1v-1c0-2.6,0-5.2,0-7.9
	l0,0v-1v-0.1v-2.5v0v-8.4C24.5,12.8,24.8,7.8,19.2,7.8 M20.4,25.5V29v3.6c0,0.6-0.6,1.1-1.2,1.1h0c-0.7,0-1.2-0.5-1.2-1.1V29v-2.7
	v-1.1c0-0.7,0.6-1.2,1.2-1.2s1.2,0.6,1.2,1.2V25.5z"/>
<path class="st3" d="M65.1,37h-1.7c-0.1-0.3-0.1-1-0.1-1.3c-0.4,1.2-1.4,1.6-2.5,1.6c-2.4,0-3.1-1.7-3.1-4.5v-8
	c0-2.7,1.1-4.6,3.8-4.6c3.2,0,3.7,2.3,3.7,4.3V25h-2.2v-0.6c0-1-0.1-2.1-1.5-2.1c-1,0-1.5,0.7-1.5,2.2V33c0,1.5,0.4,2.3,1.4,2.3
	c1.3,0,1.5-1.1,1.5-3v-2.5h-1.6v-1.9h3.8V37z"/>
<path class="st3" d="M70.5,29.5V37h-2.2V20.4h3.3c2.5,0,3.9,1,3.9,3.9v0.7c0,2.4-0.9,3.2-1.7,3.5c1,0.4,1.5,1.2,1.5,3.4
	c0,1.4,0,4.1,0.2,5.1h-2.2c-0.2-1-0.2-3.8-0.2-5c0-2.1-0.3-2.6-1.8-2.6H70.5z M70.5,27.6h0.8c1.4,0,1.9-0.7,1.9-2.5v-0.6
	c0-1.4-0.3-2.2-1.9-2.2h-0.8V27.6z"/>
<path class="st3" d="M85.7,24.7v8c0,3.1-1.3,4.6-4,4.6c-2.6,0-3.7-1.6-3.7-4.5v-8c0-3,1.5-4.5,3.9-4.5
	C84.4,20.2,85.7,21.8,85.7,24.7 M80.3,24.5V33c0,1.6,0.6,2.3,1.6,2.3c1.1,0,1.6-0.7,1.6-2.3v-8.4c0-1.5-0.5-2.3-1.6-2.3
	C80.8,22.2,80.3,23,80.3,24.5"/>
<path class="st3" d="M90.8,20.4v12.7c0,1.3,0.4,2.1,1.5,2.1c1.1,0,1.5-0.8,1.5-2.1V20.4h2.2v12.7c0,2.6-1.2,4.1-3.8,4.1
	c-2.5,0-3.7-1.4-3.7-4.1V20.4H90.8z"/>
<path class="st3" d="M99.3,20.4h3.4c2.6,0,3.8,1.3,3.8,4.1v1c0,2.6-0.9,4.5-4,4.5h-1.1v7h-2.2V20.4z M101.6,28.2h0.8
	c1.7,0,2-1,2-2.7v-0.8c0-1.3-0.3-2.3-1.8-2.3h-1V28.2z"/>
<polygon class="st0" points="58.8,42.2 57.6,42.2 57.6,41.5 61.1,41.5 61.1,42.2 59.9,42.2 59.9,47.3 58.8,47.3 "/>
<polygon class="st0" points="62.1,41.5 63.1,41.5 63.1,43.8 64.5,43.8 64.5,41.5 65.5,41.5 65.5,47.3 64.5,47.3 64.5,44.5 
	63.1,44.5 63.1,47.3 62.1,47.3 "/>
<rect x="67" y="41.5" class="st0" width="1" height="5.8"/>
<path class="st0" d="M69.5,47.3v-5.8h1.2c0.3,0.9,1.3,3.9,1.4,4.2h0c0-0.7-0.1-1.6-0.1-2.5v-1.7H73v5.8h-1.1c-0.3-0.9-1.3-4-1.5-4.4
	h0c0.1,0.7,0.1,1.5,0.1,2.6v1.8H69.5z"/>
<path class="st0" d="M74.6,41.5h1v2.7h0c0.3-0.6,1-1.9,1.5-2.7h1.1l-1.4,2.3l1.5,3.5h-1.1l-1.1-2.7l-0.5,0.8v1.9h-1V41.5z"/>
<polygon class="st0" points="81.7,42.2 80.5,42.2 80.5,41.5 83.9,41.5 83.9,42.2 82.7,42.2 82.7,47.3 81.7,47.3 "/>
<path class="st0" d="M88.3,42.9v2.8c0,1.1-0.6,1.6-1.8,1.6c-1.2,0-1.7-0.6-1.7-1.6v-2.8c0-1.1,0.7-1.6,1.8-1.6
	C87.7,41.4,88.3,41.9,88.3,42.9 M85.8,42.9v3c0,0.6,0.3,0.8,0.7,0.8c0.5,0,0.7-0.2,0.7-0.8v-2.9c0-0.5-0.2-0.8-0.7-0.8
	C86,42.1,85.8,42.3,85.8,42.9"/>
<path class="st0" d="M93.4,45c0-1,0-2.2,0-2.9h0c-0.2,1-0.7,3.4-1,5.1h-1c-0.3-1.5-0.8-4.1-0.9-5.1h0c0,0.7,0.1,2,0.1,3v2.1h-0.9
	v-5.8h1.5c0.3,1.6,0.7,3.4,0.8,4.2h0c0.1-0.8,0.6-2.7,1-4.2h1.5v5.8h-1V45z"/>
<path class="st0" d="M99.2,42.9v2.8c0,1.1-0.6,1.6-1.8,1.6c-1.2,0-1.7-0.6-1.7-1.6v-2.8c0-1.1,0.7-1.6,1.8-1.6
	C98.6,41.4,99.2,41.9,99.2,42.9 M96.8,42.9v3c0,0.6,0.3,0.8,0.7,0.8c0.5,0,0.7-0.2,0.7-0.8v-2.9c0-0.5-0.2-0.8-0.7-0.8
	C97,42.1,96.8,42.3,96.8,42.9"/>
<path class="st0" d="M101.6,44.6v2.6h-1v-5.8h1.5c1.1,0,1.8,0.4,1.8,1.4v0.2c0,0.8-0.4,1.1-0.8,1.2c0.5,0.1,0.7,0.4,0.7,1.2
	c0,0.5,0,1.4,0.1,1.8h-1c-0.1-0.4-0.1-1.3-0.1-1.7c0-0.7-0.1-0.9-0.8-0.9H101.6z M101.6,44h0.4c0.7,0,0.9-0.2,0.9-0.9v-0.2
	c0-0.5-0.1-0.8-0.9-0.8h-0.4V44z"/>
<path class="st0" d="M106.2,44.6v2.6h-1v-5.8h1.5c1.1,0,1.8,0.4,1.8,1.4v0.2c0,0.8-0.4,1.1-0.8,1.2c0.5,0.1,0.7,0.4,0.7,1.2
	c0,0.5,0,1.4,0.1,1.8h-1c-0.1-0.4-0.1-1.3-0.1-1.7c0-0.7-0.1-0.9-0.8-0.9H106.2z M106.2,44h0.4c0.7,0,0.9-0.2,0.9-0.9v-0.2
	c0-0.5-0.1-0.8-0.9-0.8h-0.4V44z"/>
<path class="st0" d="M113.2,42.9v2.8c0,1.1-0.6,1.6-1.8,1.6c-1.2,0-1.7-0.6-1.7-1.6v-2.8c0-1.1,0.7-1.6,1.8-1.6
	C112.6,41.4,113.2,41.9,113.2,42.9 M110.7,42.9v3c0,0.6,0.3,0.8,0.7,0.8c0.5,0,0.7-0.2,0.7-0.8v-2.9c0-0.5-0.2-0.8-0.7-0.8
	C111,42.1,110.7,42.3,110.7,42.9"/>
<path class="st0" d="M115.2,47.3l-1-5.8h1.1c0.2,1.3,0.5,3.5,0.6,4.5h0c0.1-1.1,0.5-3.2,0.8-4.5h1c0.2,1.3,0.6,3.3,0.8,4.4h0
	c0.1-1.1,0.4-3.1,0.6-4.4h1l-1.1,5.8h-1.1c-0.2-1.3-0.6-3.2-0.7-4.3h0c-0.2,1.1-0.6,3-0.8,4.3H115.2z"/>
</svg>
