<svg id="a" xmlns="http://www.w3.org/2000/svg" viewBox="0 0 134.92 49.96">
  <g id="b">
    <path
      d="M54.09,46.68h-3.37l-.7,1.59h-.93l2.87-6.36h.9l2.88,6.36h-.95l-.7-1.59ZM53.77,45.95l-1.37-3.11-1.37,3.11h2.74Z"
      style="fill:#31404a;" />
    <path
      d="M58.61,45.09c0-1.88,1.43-3.25,3.36-3.25.98,0,1.83.34,2.41.99l-.59.57c-.49-.52-1.09-.75-1.79-.75-1.43,0-2.49,1.04-2.49,2.44s1.06,2.44,2.49,2.44c.7,0,1.3-.25,1.79-.76l.59.57c-.58.65-1.43,1-2.42,1-1.92,0-3.35-1.37-3.35-3.25Z"
      style="fill:#31404a;" />
    <path
      d="M64.92,45.86c0-1.43,1.06-2.45,2.5-2.45s2.49,1.02,2.49,2.45-1.05,2.46-2.49,2.46-2.5-1.03-2.5-2.46ZM69.04,45.86c0-1.03-.69-1.69-1.61-1.69s-1.62.66-1.62,1.69.7,1.7,1.62,1.7,1.61-.67,1.61-1.7Z"
      style="fill:#31404a;" />
    <path
      d="M73.83,47.98c-.26.23-.66.34-1.05.34-.97,0-1.52-.54-1.52-1.51v-2.64h-.82v-.72h.82v-1.05h.87v1.05h1.38v.72h-1.38v2.61c0,.52.27.81.75.81.25,0,.5-.08.68-.23l.27.63Z"
      style="fill:#31404a;" />
    <path
      d="M74.73,41.96c0-.32.25-.57.59-.57s.59.25.59.55c0,.33-.24.58-.59.58s-.59-.25-.59-.56ZM74.88,43.45h.87v4.81h-.87v-4.81Z"
      style="fill:#31404a;" />
    <path d="M81.66,43.45l-2.1,4.81h-.89l-2.1-4.81h.91l1.65,3.86,1.69-3.86h.85Z"
      style="fill:#31404a;" />
    <path
      d="M82.33,41.96c0-.32.25-.57.59-.57s.59.25.59.55c0,.33-.24.58-.59.58s-.59-.25-.59-.56ZM82.48,43.45h.87v4.81h-.87v-4.81Z"
      style="fill:#31404a;" />
    <path
      d="M87.71,47.98c-.26.23-.66.34-1.05.34-.97,0-1.52-.54-1.52-1.51v-2.64h-.82v-.72h.82v-1.05h.87v1.05h1.38v.72h-1.38v2.61c0,.52.27.81.75.81.25,0,.5-.08.68-.23l.27.63Z"
      style="fill:#31404a;" />
    <path
      d="M88.61,41.96c0-.32.25-.57.59-.57s.59.25.59.55c0,.33-.24.58-.59.58s-.59-.25-.59-.56ZM88.76,43.45h.87v4.81h-.87v-4.81Z"
      style="fill:#31404a;" />
    <path
      d="M99.32,46.55c0,1.09-.83,1.72-2.43,1.72h-3.03v-6.36h2.85c1.46,0,2.27.62,2.27,1.64,0,.69-.35,1.17-.85,1.42.72.2,1.19.74,1.19,1.58ZM94.77,42.65v2.03h1.86c.92,0,1.45-.35,1.45-1.02s-.53-1.02-1.45-1.02h-1.86ZM98.4,46.48c0-.74-.54-1.06-1.55-1.06h-2.08v2.12h2.08c1.01,0,1.55-.32,1.55-1.05Z"
      style="fill:#31404a;" />
    <path
      d="M104.89,43.45v4.81h-.83v-.73c-.35.5-.95.78-1.63.78-1.24,0-2.07-.68-2.07-2.1v-2.77h.87v2.67c0,.94.47,1.42,1.3,1.42.91,0,1.49-.56,1.49-1.6v-2.49h.87Z"
      style="fill:#31404a;" />
    <path
      d="M105.75,47.76l.36-.69c.41.29,1.06.5,1.69.5.81,0,1.14-.25,1.14-.65,0-1.08-3.04-.15-3.04-2.06,0-.86.77-1.44,2-1.44.62,0,1.33.16,1.75.44l-.37.69c-.43-.28-.92-.38-1.39-.38-.76,0-1.13.28-1.13.66,0,1.13,3.05.21,3.05,2.08,0,.87-.8,1.43-2.08,1.43-.8,0-1.59-.25-1.98-.56Z"
      style="fill:#31404a;" />
    <path
      d="M110.56,41.96c0-.32.25-.57.59-.57s.59.25.59.55c0,.33-.24.58-.59.58s-.59-.25-.59-.56ZM110.71,43.45h.87v4.81h-.87v-4.81Z"
      style="fill:#31404a;" />
    <path
      d="M117.61,45.5v2.77h-.87v-2.67c0-.94-.47-1.41-1.3-1.41-.92,0-1.52.55-1.52,1.6v2.48h-.87v-4.81h.83v.73c.35-.49.97-.77,1.73-.77,1.17,0,1.99.67,1.99,2.09Z"
      style="fill:#31404a;" />
    <path
      d="M123.36,46.15h-3.9c.11.84.79,1.41,1.74,1.41.56,0,1.03-.19,1.39-.58l.48.56c-.44.51-1.1.78-1.89.78-1.55,0-2.58-1.03-2.58-2.46s1.02-2.45,2.41-2.45,2.37,1,2.37,2.48c0,.07,0,.18-.02.26ZM119.46,45.52h3.08c-.09-.81-.7-1.38-1.54-1.38s-1.45.56-1.54,1.38Z"
      style="fill:#31404a;" />
    <path
      d="M123.79,47.76l.36-.69c.41.29,1.06.5,1.69.5.81,0,1.14-.25,1.14-.65,0-1.08-3.04-.15-3.04-2.06,0-.86.77-1.44,2-1.44.62,0,1.33.16,1.75.44l-.37.69c-.43-.28-.92-.38-1.39-.38-.76,0-1.13.28-1.13.66,0,1.13,3.05.21,3.05,2.08,0,.87-.8,1.43-2.08,1.43-.8,0-1.59-.25-1.98-.56Z"
      style="fill:#31404a;" />
    <path
      d="M128.14,47.76l.36-.69c.41.29,1.06.5,1.69.5.81,0,1.14-.25,1.14-.65,0-1.08-3.04-.15-3.04-2.06,0-.86.77-1.44,2-1.44.62,0,1.33.16,1.75.44l-.37.69c-.43-.28-.92-.38-1.39-.38-.76,0-1.13.28-1.13.66,0,1.13,3.05.21,3.05,2.08,0,.87-.8,1.43-2.08,1.43-.8,0-1.59-.25-1.98-.56Z"
      style="fill:#31404a;" />
    <path
      d="M45.54,2.86v29.03c-.55.23-1.03.37-1.54.51-5.17,1.44-13.75,2.4-17.65-2.13-3.14-3.64-3.42-11.51-.67-15.42,2.95-4.17,9.74-4.36,14.14-2.7V2.86h5.71ZM33.59,16.19c-3.5.36-4.36,3.33-4.16,6.41.34,5.38,3.64,6.57,8.54,5.82.6-.09,1.2-.26,1.78-.44l.04-10.7c-1.78-1-4.18-1.29-6.2-1.08"
      style="fill:#31404a;" />
    <path
      d="M91.33,24.52h-14.58c-.15,2.73,2.15,3.93,4.5,4.32,3.14.53,6.45,0,9.57-.4v4.39c-.65.2-1.19.29-1.76.37-6.7.94-15.68.85-17.59-7.2-1.03-4.34-.5-10.42,3.55-13.07,3.25-2.12,9.72-2.46,13.01-.34,3.92,2.51,3.82,7.81,3.3,11.92M85.96,20.43v-1.49c0-1.62-1.57-2.9-3.05-3.17-3.47-.65-6.09,1.02-6.16,4.66h9.21Z"
      style="fill:#31404a;" />
    <path
      d="M132.01,12.12c-3.46-1.09-7.43-1.47-11.04-.97-4.67.65-7.33,2.8-6.96,7.79.31,4.18,3.9,5.18,7.39,5.74,1.36.22,4.52.32,5.53,1.04,1.04.75.8,2.11-.19,2.8-1.73,1.21-6.99.66-9.07.23-.86-.18-1.88-.5-2.72-.74v.14s0,4.52,0,4.52c.88.35,1.95.6,2.9.77,4.65.84,14.54,1.14,15.18-5.38.52-5.32-2.23-7.05-6.97-7.86-1.57-.27-4.1-.28-5.48-.84-1.57-.64-1.52-2.4-.12-3.18,2.04-1.14,7.14-.49,9.43.01.43.1,1.68.46,2.12.63v-4.7Z"
      style="fill:#31404a;" />
    <path
      d="M70.35,2.35v4.43c-2.16-.22-5.48-1.02-6.28,1.72-.05.18-.11.63-.11,1.13v1.83h6.12l.02,5.03h-6.14v16.63h-5.54v-16.63h5.54v-5.03h-5.54c-.12-3.62.21-7.43,4.07-8.85,2.47-.9,5.32-.67,7.87-.28"
      style="fill:#31404a;" />
    <path
      d="M111.74,28.48v-.07c-5.21,1.07-12.28,1.59-12.74-5.46-.44-6.83,4.28-7.69,9.94-7.12.94.09,1.88.28,2.8.5v-4.52c-5.97-1.15-15.1-1.4-17.66,5.45-1.42,3.81-.98,9.84,1.85,12.94,3.38,3.71,10.28,3.83,14.86,2.91.3-.06.56-.14.95-.24v-4.39Z"
      style="fill:#31404a;" />
    <rect x="49.12" y="6.1" width="5.71" height="5.37" style="fill:#f05237;" />
    <rect x="49.12" y="16.42" width="5.71" height="16.71" style="fill:#31404a;" />
    <path
      d="M21.6,24.52H7.02c-.15,2.73,2.15,3.93,4.5,4.32,3.14.53,6.45,0,9.57-.4v4.39c-.65.2-1.19.29-1.76.37-6.7.94-15.68.85-17.59-7.2-1.03-4.34-.5-10.42,3.55-13.07,3.25-2.12,9.72-2.46,13.01-.34,3.92,2.51,3.82,7.81,3.3,11.92M16.23,20.43v-1.49c0-1.62-1.57-2.9-3.05-3.17-3.47-.65-6.09,1.02-6.16,4.66h9.21Z"
      style="fill:#31404a;" />
  </g>
</svg>